<svg xmlns="http://www.w3.org/2000/svg" viewBox="0 0 512 512">
  <defs>
    <linearGradient id="bg" x1="0%" y1="0%" x2="100%" y2="100%">
      <stop offset="0%" stop-color="#6f48c9" />
      <stop offset="100%" stop-color="#3e84f8" />
    </linearGradient>
  </defs>
  <rect width="512" height="512" rx="120" fill="url(#bg)" />
  <path d="M256 120c-60.75 0-110 49.25-110 110s49.25 110 110 110 110-49.25 110-110-49.25-110-110-110zm0 64c25.3 0 46 20.7 46 46s-20.7 46-46 46-46-20.7-46-46 20.7-46 46-46zm0 180c-59.6 0-144 28.9-144 88v32h288v-32c0-59.1-84.4-88-144-88z" fill="#ffffff" opacity="0.8" />
</svg>
